<?xml version="1.0" standalone="no"?><!DOCTYPE svg PUBLIC "-//W3C//DTD SVG 1.1//EN" "http://www.w3.org/Graphics/SVG/1.1/DTD/svg11.dtd"><svg t="1652795096931" class="icon" viewBox="0 0 1024 1024" version="1.1" xmlns="http://www.w3.org/2000/svg" p-id="1727" xmlns:xlink="http://www.w3.org/1999/xlink" width="200" height="200"><defs><style type="text/css">@font-face { font-family: 宋体; src: local("LXGW WenKai"); }
@font-face { font-family: 新宋体; src: local("LXGW WenKai"); }
@font-face { font-family: 黑体; src: local("LXGW WenKai"); }
@font-face { font-family: 微软雅黑; src: local("LXGW WenKai"); }
@font-face { font-family: 微軟正黑體; src: local("LXGW WenKai"); }
@font-face { font-family: SimSun; src: local("LXGW WenKai"); }
@font-face { font-family: NSimSun; src: local("LXGW WenKai"); }
@font-face { font-family: SimHei; src: local("LXGW WenKai"); }
@font-face { font-family: "Heiti SC"; src: local("LXGW WenKai"); }
@font-face { font-family: "HanHei SC"; src: local("LXGW WenKai"); }
@font-face { font-family: MingLiU; src: local("LXGW WenKai"); }
@font-face { font-family: MingLiU-ExtB; src: local("LXGW WenKai"); }
@font-face { font-family: PMingLiU; src: local("LXGW WenKai"); }
@font-face { font-family: PMingLiU-ExtB; src: local("LXGW WenKai"); }
@font-face { font-family: Roboto; src: local("LXGW WenKai"); }
@font-face { font-family: RobotoDraft; src: local("LXGW WenKai"); }
@font-face { font-family: "Noto Sans"; src: local("LXGW WenKai"); }
@font-face { font-family: Helvetica; src: local("LXGW WenKai"); }
@font-face { font-family: "Helvetica Neue"; src: local("LXGW WenKai"); }
@font-face { font-family: "Lucida Grande"; src: local("LXGW WenKai"); }
@font-face { font-family: Arial; src: local("LXGW WenKai"); }
@font-face { font-family: Verdana; src: local("LXGW WenKai"); }
@font-face { font-family: Ubuntu; src: local("LXGW WenKai"); }
@font-face { font-family: "Segoe UI"; src: local("LXGW WenKai"); }
@font-face { font-family: "Open Sans"; src: local("LXGW WenKai"); }
:not(i):not(.fa):not([class*="icon"]):not([class*="vjs-"]):not([class*="glyph"]) { font-family: "LXGW WenKai", "Microsoft YaHei", system-ui, -apple-system, BlinkMacSystemFont, sans-serif, iconfont, icomoon, FontAwesome, IcoFont, "Material Icons Extended", "Apple Color Emoji", "Segoe UI Emoji", "Segoe UI Symbol", "Noto Color Emoji", "Android Emoji", EmojiSymbols, "emojione mozilla", "twemoji mozilla"; text-shadow: rgba(164, 160, 154, 0.85) 0px 0px 0.47px, rgba(123, 123, 123, 0.8) 0px 0px 0.41px, rgba(48, 47, 45, 0.27) 0px 0px 0.31px; -webkit-text-stroke: 0.35px currentcolor; font-feature-settings: "liga" 0; font-variant: no-common-ligatures proportional-nums; font-optical-sizing: auto; font-kerning: auto; -webkit-font-smoothing: antialiased !important; text-rendering: optimizelegibility !important; }
</style></defs><path d="M642.88 1012.12h-262.5c-203.65 0-368.75-165.09-368.75-368.75v-262.5c0-203.65 165.1-368.75 368.75-368.75h262.5c203.65 0 368.75 165.1 368.75 368.75v262.5c0 203.65-165.1 368.75-368.75 368.75z" fill="#C792FF" p-id="1728"></path><path d="M120.95 905.36c20.77-140.44 96.4-284.55 191.1-379.25C433.62 404.54 614.2 329.75 786.09 329.75c79.25 0 154.61 14.47 225.28 40.77-5.49-198.86-168.3-358.41-368.49-358.41h-262.5c-203.66 0-368.75 165.09-368.75 368.75v262.5c0 102.49 41.83 195.17 109.32 262z" fill="#D6B6FF" p-id="1729"></path><path d="M515.33 252.12c16.57 0 33.35 13.43 37.48 30l165.15 687.5c4.13 16.57-5.95 30-22.52 30s-33.35-13.43-37.48-30l-165.15-687.5c-4.13-16.57 5.95-30 22.52-30zM392.27 335.2c16.57 0 33.35 13.43 37.48 30L553.5 861.54c4.13 16.57-5.95 30-22.52 30s-33.35-13.43-37.48-30L369.75 365.2c-4.13-16.57 5.95-30 22.52-30zM667.27 335.2c16.57 0 33.35 13.43 37.48 30L828.5 861.54c4.13 16.57-5.95 30-22.52 30s-33.35-13.43-37.48-30L644.75 365.2c-4.13-16.57 5.95-30 22.52-30zM246.08 463.36c16.57 0 33.35 13.43 37.48 30l41.14 165.02c4.13 16.57-5.95 30-22.52 30s-33.35-13.43-37.48-30l-41.14-165.02c-4.13-16.57 5.95-30 22.52-30zM796.08 463.36c16.57 0 33.35 13.43 37.48 30l41.14 165.02c4.13 16.57-5.95 30-22.52 30s-33.35-13.43-37.48-30l-41.14-165.02c-4.13-16.57 5.95-30 22.52-30z" fill="#A35CFF" p-id="1730"></path><path d="M511.63 239.62c16.57 0 30 13.43 30 30v485c0 16.57-13.43 30-30 30s-30-13.43-30-30v-485c0-16.57 13.43-30 30-30zM374.13 315.87c16.57 0 30 13.43 30 30v332.5c0 16.57-13.43 30-30 30s-30-13.43-30-30v-332.5c0-16.57 13.43-30 30-30zM649.13 315.87c16.57 0 30 13.43 30 30v332.5c0 16.57-13.43 30-30 30s-30-13.43-30-30v-332.5c0-16.57 13.43-30 30-30zM236.63 432.74c16.57 0 30 13.43 30 30v98.75c0 16.57-13.43 30-30 30s-30-13.43-30-30v-98.75c0-16.57 13.43-30 30-30zM786.63 432.74c16.57 0 30 13.43 30 30v98.75c0 16.57-13.43 30-30 30s-30-13.43-30-30v-98.75c0-16.57 13.43-30 30-30z" fill="#FFFFFF" p-id="1731"></path></svg>