<svg xmlns="http://www.w3.org/2000/svg" width="38" height="38" viewBox="0 0 38 38">
  <defs>
    <style>
      .cls-1, .cls-2 {
        fill: #2cdfaa;
      }

      .cls-1 {
        opacity: 0.1;
      }
    </style>
  </defs>
  <g id="组_1578" data-name="组 1578" transform="translate(-199 -325)">
    <circle id="椭圆_790" data-name="椭圆 790" class="cls-1" cx="19" cy="19" r="19" transform="translate(199 325)"/>
    <g id="腰围尺寸" transform="translate(208.87 334.499)">
      <path id="联合_110" data-name="联合 110" class="cls-2" d="M2398.2-2478.226a1,1,0,0,1-.657-.309,1.106,1.106,0,0,1-.394-1.073,1.262,1.262,0,0,1,.645-.873.352.352,0,0,1,.113-.019.344.344,0,0,1,.323.229l.047.132a.342.342,0,0,1,.052.246.347.347,0,0,1-.144.226.51.51,0,0,0-.147.256.136.136,0,0,0,.014.077.34.34,0,0,1,.258-.131l.235-.007a.34.34,0,0,1,.239.1.343.343,0,0,1,.1.246.863.863,0,0,1-.423.845.641.641,0,0,1-.262.06Z" transform="translate(-2388.925 2487.775)"/>
      <path id="联合_109" data-name="联合 109" class="cls-2" d="M2414.826-2460.7a.658.658,0,0,1-.616-.655.638.638,0,0,1,.007-.094,10.85,10.85,0,0,0-.777-4.955c-.039-.077-.073-.146-.1-.211a14.177,14.177,0,0,1-6.89,1.789h-.044a15.436,15.436,0,0,1-2.641-.229,15.4,15.4,0,0,1-4.553-1.533c-.03.061-.061.123-.092.184a10.853,10.853,0,0,0-.786,4.839.666.666,0,0,1,.024.177.654.654,0,0,1-.551.648.6.6,0,0,1-.106.009.657.657,0,0,1-.616-.431.37.37,0,0,1-.05-.159,12.143,12.143,0,0,1,.916-5.681,14.347,14.347,0,0,0,1.283-7.777,20.439,20.439,0,0,0-.8-4.269.653.653,0,0,1-.07-.294.659.659,0,0,1,.327-.568.669.669,0,0,1,.658,0,.672.672,0,0,1,.233.228.44.44,0,0,1,.049.084,19.675,19.675,0,0,1,.905,4.537,18.11,18.11,0,0,1-.313,5.565,8.225,8.225,0,0,0,.751.389,12.033,12.033,0,0,0,2.839.888,12.09,12.09,0,0,0,2.173.2,12.855,12.855,0,0,0,6.314-1.7,18.242,18.242,0,0,1-.265-5.341,20.479,20.479,0,0,1,.86-4.417.66.66,0,0,1,.313-.428.666.666,0,0,1,.656,0,.661.661,0,0,1,.329.568.7.7,0,0,1-.017.149v0a.3.3,0,0,1-.008.041.429.429,0,0,1-.015.05,19.961,19.961,0,0,0-.8,4.114,14.877,14.877,0,0,0,1.266,7.979,12.116,12.116,0,0,1,.917,5.681.291.291,0,0,1-.01.061.658.658,0,0,1-.65.563Zm-9.654-6.106-.1.893a14.006,14.006,0,0,0,1.739.058l-.107-.639a.339.339,0,0,1,.06-.256.337.337,0,0,1,.222-.139l.332-.056a.348.348,0,0,1,.255.059.337.337,0,0,1,.138.223l.124.739c.4-.043.809-.105,1.207-.185l-.224-.541a.339.339,0,0,1,0-.262.341.341,0,0,1,.186-.186l.414-.172a.342.342,0,0,1,.262,0,.346.346,0,0,1,.186.186l.292.7a12.933,12.933,0,0,0,1.332-.472l-.365-.67a.342.342,0,0,1,.136-.463l.393-.215a.347.347,0,0,1,.261-.029.339.339,0,0,1,.2.164l.4.732c.137-.071.274-.146.411-.223-.143-.373-.272-.754-.381-1.139a14.272,14.272,0,0,1-4.345,1.511,13.245,13.245,0,0,1-2.183.183H2406c-.292,0-.585-.01-.877-.029A.337.337,0,0,1,2405.173-2466.808Zm-2.893-.721.411.179a.343.343,0,0,1,.177.45l-.236.544c.386.1.786.194,1.189.268l.236.042.1-.877a.346.346,0,0,1,.092-.2c-.129-.017-.256-.035-.384-.057a12.826,12.826,0,0,1-3.918-1.3c-.1.32-.207.639-.328.95l.036.02.284-.545a.342.342,0,0,1,.3-.184.339.339,0,0,1,.158.04l.4.207a.338.338,0,0,1,.168.2.335.335,0,0,1-.023.261l-.265.509c.275.117.565.228.862.331l.287-.661a.344.344,0,0,1,.315-.206A.336.336,0,0,1,2402.28-2467.529Z" transform="translate(-2397.15 2479.852)"/>
    </g>
  </g>
</svg>
