<svg xmlns="http://www.w3.org/2000/svg" xmlns:xlink="http://www.w3.org/1999/xlink" width="38" height="38" viewBox="0 0 38 38">
  <defs>
    <style>
      .cls-1, .cls-3 {
        fill: #2cdfaa;
      }

      .cls-1 {
        opacity: 0.1;
      }

      .cls-2 {
        clip-path: url(#clip-path);
      }
    </style>
    <clipPath id="clip-path"/>
  </defs>
  <g id="组_1576" data-name="组 1576" transform="translate(-199 -325)">
    <circle id="椭圆_790" data-name="椭圆 790" class="cls-1" cx="19" cy="19" r="19" transform="translate(199 325)"/>
    <g id="蒙版组_54" data-name="蒙版组 54" class="cls-2" transform="translate(209 319.944)">
      <g id="腰围尺寸" transform="translate(0 14.056)">
        <path id="路径_1004" data-name="路径 1004" class="cls-3" d="M192.582,167.22a.867.867,0,0,0,.557.27h0a.479.479,0,0,0,.2-.045.722.722,0,0,0,.336-.706v0a.192.192,0,0,0-.2-.192l-.224.007a.192.192,0,0,0-.186.2.528.528,0,0,1,0,.08c-.021-.016-.045-.036-.075-.062a.374.374,0,0,1-.161-.325.646.646,0,0,1,.206-.362.193.193,0,0,0,.048-.282l-.054-.152a.192.192,0,0,0-.245-.118,1.131,1.131,0,0,0-.548.761A.961.961,0,0,0,192.582,167.22Z" transform="translate(-183.862 -158.09)"/>
        <path id="路径_1005" data-name="路径 1005" class="cls-3" d="M37.946,25.921a15.028,15.028,0,0,1-1.283-8.061,20.079,20.079,0,0,1,.811-4.151.227.227,0,0,0,.011-.036.223.223,0,0,0,.006-.026v0a.5.5,0,0,0,.016-.125.507.507,0,0,0-1-.1,20.221,20.221,0,0,0-.857,4.391,18.253,18.253,0,0,0,.285,5.4,12.726,12.726,0,0,1-8.684,1.573,12.182,12.182,0,0,1-2.874-.9,8.746,8.746,0,0,1-.86-.451,18.1,18.1,0,0,0,.334-5.626,19.57,19.57,0,0,0-.893-4.491.226.226,0,0,0-.035-.056.506.506,0,0,0-.885.492c.159.488,2.176,6.957-.484,12.171a12,12,0,0,0-.9,5.6.226.226,0,0,0,.037.107.507.507,0,0,0,.964-.312,10.944,10.944,0,0,1,.8-4.933q.083-.162.158-.325a15.02,15.02,0,0,0,4.646,1.594,15.221,15.221,0,0,0,2.615.226h.044a14.005,14.005,0,0,0,6.958-1.85c.053.119.11.236.17.353a11.066,11.066,0,0,1,.792,5.041.485.485,0,0,0-.007.077.507.507,0,0,0,1.009.064.227.227,0,0,0,.008-.045,11.983,11.983,0,0,0-.9-5.6Zm-2.493-1.059a.192.192,0,0,0-.262-.076L34.8,25a.192.192,0,0,0-.077.26l.445.815a13.172,13.172,0,0,1-1.63.579l-.344-.826a.192.192,0,0,0-.252-.1l-.414.173a.192.192,0,0,0-.1.252l.294.708a13.347,13.347,0,0,1-1.54.237l-.146-.877a.192.192,0,0,0-.221-.158l-.332.055a.192.192,0,0,0-.158.221l.136.808a14.218,14.218,0,0,1-2.082-.068l.12-1.044a.192.192,0,0,0-.169-.213l-.334-.038a.192.192,0,0,0-.213.169l-.119,1.034q-.2-.031-.395-.067c-.492-.091-.951-.2-1.368-.317l.305-.7a.192.192,0,0,0-.1-.253l-.411-.179a.192.192,0,0,0-.253.1l-.343.788c-.421-.142-.78-.284-1.068-.408l-.085-.037.341-.653A.192.192,0,0,0,24.2,25l-.4-.208a.192.192,0,0,0-.26.082l-.355.679q-.172-.09-.286-.158a13.013,13.013,0,0,0,.424-1.237,12.5,12.5,0,0,0,4.034,1.378,13.1,13.1,0,0,0,2.106.171h.02a13.04,13.04,0,0,0,2.159-.181,14.151,14.151,0,0,0,4.464-1.585,13.151,13.151,0,0,0,.474,1.426q-.331.191-.66.357Z" transform="translate(-20.619 -13.008)"/>
      </g>
    </g>
  </g>
</svg>
